<mxfile host="app.diagrams.net" agent="Mozilla/5.0 (Windows NT 10.0; Win64; x64) AppleWebKit/537.36 (KHTML, like Gecko) Chrome/129.0.0.0 Safari/537.36" version="24.7.17">
  <diagram name="Page-1" id="HQJq92zMsxuE64h6wLN-">
    <mxGraphModel dx="1034" dy="1661" grid="1" gridSize="10" guides="1" tooltips="1" connect="1" arrows="1" fold="1" page="1" pageScale="1" pageWidth="827" pageHeight="1169" math="0" shadow="0">
      <root>
        <mxCell id="0" />
        <mxCell id="1" parent="0" />
        <mxCell id="b1py8tVrjncuLa3HCKDx-9" style="rounded=0;orthogonalLoop=1;jettySize=auto;html=1;exitX=1;exitY=0.3333333333333333;exitDx=0;exitDy=0;exitPerimeter=0;entryX=0;entryY=0.5;entryDx=0;entryDy=0;" edge="1" parent="1" source="b1py8tVrjncuLa3HCKDx-1" target="b1py8tVrjncuLa3HCKDx-5">
          <mxGeometry relative="1" as="geometry" />
        </mxCell>
        <mxCell id="b1py8tVrjncuLa3HCKDx-11" style="rounded=0;orthogonalLoop=1;jettySize=auto;html=1;exitX=1;exitY=0.3333333333333333;exitDx=0;exitDy=0;exitPerimeter=0;entryX=0;entryY=0.5;entryDx=0;entryDy=0;" edge="1" parent="1" source="b1py8tVrjncuLa3HCKDx-1" target="b1py8tVrjncuLa3HCKDx-6">
          <mxGeometry relative="1" as="geometry" />
        </mxCell>
        <mxCell id="b1py8tVrjncuLa3HCKDx-16" style="rounded=0;orthogonalLoop=1;jettySize=auto;html=1;exitX=1;exitY=0.3333333333333333;exitDx=0;exitDy=0;exitPerimeter=0;entryX=0;entryY=0.5;entryDx=0;entryDy=0;" edge="1" parent="1" source="b1py8tVrjncuLa3HCKDx-1" target="b1py8tVrjncuLa3HCKDx-14">
          <mxGeometry relative="1" as="geometry" />
        </mxCell>
        <mxCell id="b1py8tVrjncuLa3HCKDx-1" value="Admin" style="shape=umlActor;verticalLabelPosition=bottom;verticalAlign=top;html=1;outlineConnect=0;" vertex="1" parent="1">
          <mxGeometry x="200" y="-840" width="30" height="60" as="geometry" />
        </mxCell>
        <mxCell id="b1py8tVrjncuLa3HCKDx-10" style="rounded=0;orthogonalLoop=1;jettySize=auto;html=1;exitX=0;exitY=0.3333333333333333;exitDx=0;exitDy=0;exitPerimeter=0;entryX=1;entryY=0.5;entryDx=0;entryDy=0;" edge="1" parent="1" source="b1py8tVrjncuLa3HCKDx-4" target="b1py8tVrjncuLa3HCKDx-5">
          <mxGeometry relative="1" as="geometry" />
        </mxCell>
        <mxCell id="b1py8tVrjncuLa3HCKDx-17" style="rounded=0;orthogonalLoop=1;jettySize=auto;html=1;exitX=0;exitY=0.3333333333333333;exitDx=0;exitDy=0;exitPerimeter=0;entryX=1;entryY=0.5;entryDx=0;entryDy=0;" edge="1" parent="1" source="b1py8tVrjncuLa3HCKDx-4" target="b1py8tVrjncuLa3HCKDx-14">
          <mxGeometry relative="1" as="geometry" />
        </mxCell>
        <mxCell id="b1py8tVrjncuLa3HCKDx-18" style="rounded=0;orthogonalLoop=1;jettySize=auto;html=1;exitX=0;exitY=0.3333333333333333;exitDx=0;exitDy=0;exitPerimeter=0;entryX=1;entryY=0.5;entryDx=0;entryDy=0;" edge="1" parent="1" source="b1py8tVrjncuLa3HCKDx-4" target="b1py8tVrjncuLa3HCKDx-8">
          <mxGeometry relative="1" as="geometry" />
        </mxCell>
        <mxCell id="b1py8tVrjncuLa3HCKDx-4" value="Master" style="shape=umlActor;verticalLabelPosition=bottom;verticalAlign=top;html=1;outlineConnect=0;" vertex="1" parent="1">
          <mxGeometry x="610" y="-840" width="30" height="60" as="geometry" />
        </mxCell>
        <mxCell id="b1py8tVrjncuLa3HCKDx-5" value="Login" style="ellipse;whiteSpace=wrap;html=1;" vertex="1" parent="1">
          <mxGeometry x="360" y="-1080" width="140" height="70" as="geometry" />
        </mxCell>
        <mxCell id="b1py8tVrjncuLa3HCKDx-6" value="Mengelola data absensi pegawai" style="ellipse;whiteSpace=wrap;html=1;" vertex="1" parent="1">
          <mxGeometry x="360" y="-960" width="140" height="70" as="geometry" />
        </mxCell>
        <mxCell id="b1py8tVrjncuLa3HCKDx-7" value="Mencetak data" style="ellipse;whiteSpace=wrap;html=1;" vertex="1" parent="1">
          <mxGeometry x="360" y="-840" width="140" height="70" as="geometry" />
        </mxCell>
        <mxCell id="b1py8tVrjncuLa3HCKDx-8" value="Merekap data" style="ellipse;whiteSpace=wrap;html=1;" vertex="1" parent="1">
          <mxGeometry x="360" y="-720" width="140" height="70" as="geometry" />
        </mxCell>
        <mxCell id="b1py8tVrjncuLa3HCKDx-13" style="rounded=0;orthogonalLoop=1;jettySize=auto;html=1;exitX=0;exitY=0.3333333333333333;exitDx=0;exitDy=0;exitPerimeter=0;entryX=0.981;entryY=0.405;entryDx=0;entryDy=0;entryPerimeter=0;" edge="1" parent="1" source="b1py8tVrjncuLa3HCKDx-4" target="b1py8tVrjncuLa3HCKDx-7">
          <mxGeometry relative="1" as="geometry" />
        </mxCell>
        <mxCell id="b1py8tVrjncuLa3HCKDx-14" value="Logout" style="ellipse;whiteSpace=wrap;html=1;" vertex="1" parent="1">
          <mxGeometry x="360" y="-600" width="140" height="70" as="geometry" />
        </mxCell>
        <mxCell id="b1py8tVrjncuLa3HCKDx-21" value="" style="endArrow=blockThin;html=1;strokeColor=#d20a0a;bendable=1;rounded=0;endFill=1;endSize=4;startArrow=none;startFill=0;startSize=4;jumpStyle=none;jumpSize=0;targetPerimeterSpacing=15;dashed=1;strokeWidth=1.5;dashPattern=1 4;exitX=0.5;exitY=0;exitDx=0;exitDy=0;entryX=0.5;entryY=1;entryDx=0;entryDy=0;" edge="1" parent="1" source="b1py8tVrjncuLa3HCKDx-8" target="b1py8tVrjncuLa3HCKDx-7">
          <mxGeometry width="50" height="50" relative="1" as="geometry">
            <mxPoint x="350" y="-740" as="sourcePoint" />
            <mxPoint x="470" y="-740" as="targetPoint" />
          </mxGeometry>
        </mxCell>
        <mxCell id="b1py8tVrjncuLa3HCKDx-22" value="include" style="edgeLabel;html=1;align=center;verticalAlign=middle;resizable=0;points=[];" vertex="1" connectable="0" parent="b1py8tVrjncuLa3HCKDx-21">
          <mxGeometry x="-0.0933" y="1" relative="1" as="geometry">
            <mxPoint as="offset" />
          </mxGeometry>
        </mxCell>
      </root>
    </mxGraphModel>
  </diagram>
</mxfile>
